<?xml version="1.0" encoding="UTF-8" standalone="no"?>
<svg
   viewBox="0 0 640 640"
   version="1.1"
   id="svg1"
   sodipodi:docname="circle-play-solid-full-black.svg"
   inkscape:version="1.3.2 (091e20e, 2023-11-25)"
   xmlns:inkscape="http://www.inkscape.org/namespaces/inkscape"
   xmlns:sodipodi="http://sodipodi.sourceforge.net/DTD/sodipodi-0.dtd"
   xmlns="http://www.w3.org/2000/svg"
   xmlns:svg="http://www.w3.org/2000/svg">
  <defs
     id="defs1" />
  <sodipodi:namedview
     id="namedview1"
     pagecolor="#ffffff"
     bordercolor="#000000"
     borderopacity="0.25"
     inkscape:showpageshadow="2"
     inkscape:pageopacity="0.0"
     inkscape:pagecheckerboard="0"
     inkscape:deskcolor="#d1d1d1"
     inkscape:zoom="0.503125"
     inkscape:cx="320"
     inkscape:cy="319.00621"
     inkscape:window-width="1392"
     inkscape:window-height="1212"
     inkscape:window-x="2240"
     inkscape:window-y="25"
     inkscape:window-maximized="0"
     inkscape:current-layer="svg1" />
  <!--!Font Awesome Free 7.0.0 by @fontawesome - https://fontawesome.com License - https://fontawesome.com/license/free Copyright 2025 Fonticons, Inc.-->
  <path
     fill="#feffff"
     d="M64 320C64 178.6 178.6 64 320 64C461.4 64 576 178.6 576 320C576 461.4 461.4 576 320 576C178.6 576 64 461.4 64 320zM252.3 211.1C244.7 215.3 240 223.4 240 232L240 408C240 416.7 244.7 424.7 252.3 428.9C259.9 433.1 269.1 433 276.6 428.4L420.6 340.4C427.7 336 432.1 328.3 432.1 319.9C432.1 311.5 427.7 303.8 420.6 299.4L276.6 211.4C269.2 206.9 259.9 206.7 252.3 210.9z"
     id="path1"
     style="fill:#000000;fill-opacity:1" />
</svg>
